<?xml version="1.0" encoding="utf-8"?>
<svg xmlns="http://www.w3.org/2000/svg" xmlns:xlink="http://www.w3.org/1999/xlink" width="600" height="400" viewBox="0 0 2400 1600">
<defs>
  <clipPath id="clip740">
    <rect x="0" y="0" width="2400" height="1600"/>
  </clipPath>
</defs>
<path clip-path="url(#clip740)" d="M0 1600 L2400 1600 L2400 0 L0 0  Z" fill="#ffffff" fill-rule="evenodd" fill-opacity="1"/>
<defs>
  <clipPath id="clip741">
    <rect x="186" y="47" width="2167" height="1440"/>
  </clipPath>
</defs>
<path clip-path="url(#clip740)" d="M186.274 1486.45 L2352.76 1486.45 L2352.76 47.2441 L186.274 47.2441  Z" fill="#ffffff" fill-rule="evenodd" fill-opacity="1"/>
<polyline clip-path="url(#clip741)" style="stroke:#000000; stroke-linecap:round; stroke-linejoin:round; stroke-width:2; stroke-opacity:0.1; fill:none" points="391.326,1486.45 391.326,47.2441 "/>
<polyline clip-path="url(#clip741)" style="stroke:#000000; stroke-linecap:round; stroke-linejoin:round; stroke-width:2; stroke-opacity:0.1; fill:none" points="866.355,1486.45 866.355,47.2441 "/>
<polyline clip-path="url(#clip741)" style="stroke:#000000; stroke-linecap:round; stroke-linejoin:round; stroke-width:2; stroke-opacity:0.1; fill:none" points="1341.38,1486.45 1341.38,47.2441 "/>
<polyline clip-path="url(#clip741)" style="stroke:#000000; stroke-linecap:round; stroke-linejoin:round; stroke-width:2; stroke-opacity:0.1; fill:none" points="1816.41,1486.45 1816.41,47.2441 "/>
<polyline clip-path="url(#clip741)" style="stroke:#000000; stroke-linecap:round; stroke-linejoin:round; stroke-width:2; stroke-opacity:0.1; fill:none" points="2291.44,1486.45 2291.44,47.2441 "/>
<polyline clip-path="url(#clip741)" style="stroke:#000000; stroke-linecap:round; stroke-linejoin:round; stroke-width:2; stroke-opacity:0.1; fill:none" points="186.274,1445.72 2352.76,1445.72 "/>
<polyline clip-path="url(#clip741)" style="stroke:#000000; stroke-linecap:round; stroke-linejoin:round; stroke-width:2; stroke-opacity:0.1; fill:none" points="186.274,1106.28 2352.76,1106.28 "/>
<polyline clip-path="url(#clip741)" style="stroke:#000000; stroke-linecap:round; stroke-linejoin:round; stroke-width:2; stroke-opacity:0.1; fill:none" points="186.274,766.846 2352.76,766.846 "/>
<polyline clip-path="url(#clip741)" style="stroke:#000000; stroke-linecap:round; stroke-linejoin:round; stroke-width:2; stroke-opacity:0.1; fill:none" points="186.274,427.411 2352.76,427.411 "/>
<polyline clip-path="url(#clip741)" style="stroke:#000000; stroke-linecap:round; stroke-linejoin:round; stroke-width:2; stroke-opacity:0.1; fill:none" points="186.274,87.9763 2352.76,87.9763 "/>
<polyline clip-path="url(#clip740)" style="stroke:#000000; stroke-linecap:round; stroke-linejoin:round; stroke-width:4; stroke-opacity:1; fill:none" points="186.274,1486.45 2352.76,1486.45 "/>
<polyline clip-path="url(#clip740)" style="stroke:#000000; stroke-linecap:round; stroke-linejoin:round; stroke-width:4; stroke-opacity:1; fill:none" points="391.326,1486.45 391.326,1467.55 "/>
<polyline clip-path="url(#clip740)" style="stroke:#000000; stroke-linecap:round; stroke-linejoin:round; stroke-width:4; stroke-opacity:1; fill:none" points="866.355,1486.45 866.355,1467.55 "/>
<polyline clip-path="url(#clip740)" style="stroke:#000000; stroke-linecap:round; stroke-linejoin:round; stroke-width:4; stroke-opacity:1; fill:none" points="1341.38,1486.45 1341.38,1467.55 "/>
<polyline clip-path="url(#clip740)" style="stroke:#000000; stroke-linecap:round; stroke-linejoin:round; stroke-width:4; stroke-opacity:1; fill:none" points="1816.41,1486.45 1816.41,1467.55 "/>
<polyline clip-path="url(#clip740)" style="stroke:#000000; stroke-linecap:round; stroke-linejoin:round; stroke-width:4; stroke-opacity:1; fill:none" points="2291.44,1486.45 2291.44,1467.55 "/>
<path clip-path="url(#clip740)" d="M345.389 1532.02 L375.065 1532.02 L375.065 1535.95 L345.389 1535.95 L345.389 1532.02 Z" fill="#000000" fill-rule="nonzero" fill-opacity="1" /><path clip-path="url(#clip740)" d="M395.736 1529.7 Q392.588 1529.7 390.736 1531.86 Q388.907 1534.01 388.907 1537.76 Q388.907 1541.49 390.736 1543.66 Q392.588 1545.82 395.736 1545.82 Q398.884 1545.82 400.713 1543.66 Q402.564 1541.49 402.564 1537.76 Q402.564 1534.01 400.713 1531.86 Q398.884 1529.7 395.736 1529.7 M405.018 1515.05 L405.018 1519.31 Q403.259 1518.48 401.453 1518.04 Q399.671 1517.6 397.912 1517.6 Q393.282 1517.6 390.828 1520.72 Q388.398 1523.85 388.051 1530.17 Q389.416 1528.15 391.477 1527.09 Q393.537 1526 396.014 1526 Q401.222 1526 404.231 1529.17 Q407.264 1532.32 407.264 1537.76 Q407.264 1543.08 404.115 1546.3 Q400.967 1549.52 395.736 1549.52 Q389.74 1549.52 386.569 1544.94 Q383.398 1540.33 383.398 1531.6 Q383.398 1523.41 387.287 1518.55 Q391.176 1513.66 397.727 1513.66 Q399.486 1513.66 401.268 1514.01 Q403.074 1514.36 405.018 1515.05 Z" fill="#000000" fill-rule="nonzero" fill-opacity="1" /><path clip-path="url(#clip740)" d="M425.319 1517.37 Q421.708 1517.37 419.879 1520.93 Q418.074 1524.47 418.074 1531.6 Q418.074 1538.71 419.879 1542.27 Q421.708 1545.82 425.319 1545.82 Q428.953 1545.82 430.759 1542.27 Q432.587 1538.71 432.587 1531.6 Q432.587 1524.47 430.759 1520.93 Q428.953 1517.37 425.319 1517.37 M425.319 1513.66 Q431.129 1513.66 434.185 1518.27 Q437.263 1522.85 437.263 1531.6 Q437.263 1540.33 434.185 1544.94 Q431.129 1549.52 425.319 1549.52 Q419.509 1549.52 416.43 1544.94 Q413.375 1540.33 413.375 1531.6 Q413.375 1522.85 416.43 1518.27 Q419.509 1513.66 425.319 1513.66 Z" fill="#000000" fill-rule="nonzero" fill-opacity="1" /><path clip-path="url(#clip740)" d="M820.417 1532.02 L850.093 1532.02 L850.093 1535.95 L820.417 1535.95 L820.417 1532.02 Z" fill="#000000" fill-rule="nonzero" fill-opacity="1" /><path clip-path="url(#clip740)" d="M873.033 1518.36 L861.227 1536.81 L873.033 1536.81 L873.033 1518.36 M871.806 1514.29 L877.686 1514.29 L877.686 1536.81 L882.616 1536.81 L882.616 1540.7 L877.686 1540.7 L877.686 1548.85 L873.033 1548.85 L873.033 1540.7 L857.431 1540.7 L857.431 1536.19 L871.806 1514.29 Z" fill="#000000" fill-rule="nonzero" fill-opacity="1" /><path clip-path="url(#clip740)" d="M900.348 1517.37 Q896.736 1517.37 894.908 1520.93 Q893.102 1524.47 893.102 1531.6 Q893.102 1538.71 894.908 1542.27 Q896.736 1545.82 900.348 1545.82 Q903.982 1545.82 905.787 1542.27 Q907.616 1538.71 907.616 1531.6 Q907.616 1524.47 905.787 1520.93 Q903.982 1517.37 900.348 1517.37 M900.348 1513.66 Q906.158 1513.66 909.213 1518.27 Q912.292 1522.85 912.292 1531.6 Q912.292 1540.33 909.213 1544.94 Q906.158 1549.52 900.348 1549.52 Q894.537 1549.52 891.459 1544.94 Q888.403 1540.33 888.403 1531.6 Q888.403 1522.85 891.459 1518.27 Q894.537 1513.66 900.348 1513.66 Z" fill="#000000" fill-rule="nonzero" fill-opacity="1" /><path clip-path="url(#clip740)" d="M1295.45 1532.02 L1325.12 1532.02 L1325.12 1535.95 L1295.45 1535.95 L1295.45 1532.02 Z" fill="#000000" fill-rule="nonzero" fill-opacity="1" /><path clip-path="url(#clip740)" d="M1339.24 1544.91 L1355.56 1544.91 L1355.56 1548.85 L1333.62 1548.85 L1333.62 1544.91 Q1336.28 1542.16 1340.86 1537.53 Q1345.47 1532.88 1346.65 1531.53 Q1348.89 1529.01 1349.77 1527.27 Q1350.68 1525.51 1350.68 1523.82 Q1350.68 1521.07 1348.73 1519.33 Q1346.81 1517.6 1343.71 1517.6 Q1341.51 1517.6 1339.06 1518.36 Q1336.63 1519.13 1333.85 1520.68 L1333.85 1515.95 Q1336.67 1514.82 1339.13 1514.24 Q1341.58 1513.66 1343.62 1513.66 Q1348.99 1513.66 1352.18 1516.35 Q1355.38 1519.03 1355.38 1523.52 Q1355.38 1525.65 1354.57 1527.57 Q1353.78 1529.47 1351.67 1532.07 Q1351.09 1532.74 1347.99 1535.95 Q1344.89 1539.15 1339.24 1544.91 Z" fill="#000000" fill-rule="nonzero" fill-opacity="1" /><path clip-path="url(#clip740)" d="M1375.38 1517.37 Q1371.77 1517.37 1369.94 1520.93 Q1368.13 1524.47 1368.13 1531.6 Q1368.13 1538.71 1369.94 1542.27 Q1371.77 1545.82 1375.38 1545.82 Q1379.01 1545.82 1380.82 1542.27 Q1382.64 1538.71 1382.64 1531.6 Q1382.64 1524.47 1380.82 1520.93 Q1379.01 1517.37 1375.38 1517.37 M1375.38 1513.66 Q1381.19 1513.66 1384.24 1518.27 Q1387.32 1522.85 1387.32 1531.6 Q1387.32 1540.33 1384.24 1544.94 Q1381.19 1549.52 1375.38 1549.52 Q1369.57 1549.52 1366.49 1544.94 Q1363.43 1540.33 1363.43 1531.6 Q1363.43 1522.85 1366.49 1518.27 Q1369.57 1513.66 1375.38 1513.66 Z" fill="#000000" fill-rule="nonzero" fill-opacity="1" /><path clip-path="url(#clip740)" d="M1816.41 1517.37 Q1812.8 1517.37 1810.97 1520.93 Q1809.17 1524.47 1809.17 1531.6 Q1809.17 1538.71 1810.97 1542.27 Q1812.8 1545.82 1816.41 1545.82 Q1820.05 1545.82 1821.85 1542.27 Q1823.68 1538.71 1823.68 1531.6 Q1823.68 1524.47 1821.85 1520.93 Q1820.05 1517.37 1816.41 1517.37 M1816.41 1513.66 Q1822.22 1513.66 1825.28 1518.27 Q1828.36 1522.85 1828.36 1531.6 Q1828.36 1540.33 1825.28 1544.94 Q1822.22 1549.52 1816.41 1549.52 Q1810.6 1549.52 1807.52 1544.94 Q1804.47 1540.33 1804.47 1531.6 Q1804.47 1522.85 1807.52 1518.27 Q1810.6 1513.66 1816.41 1513.66 Z" fill="#000000" fill-rule="nonzero" fill-opacity="1" /><path clip-path="url(#clip740)" d="M2270.21 1544.91 L2286.53 1544.91 L2286.53 1548.85 L2264.59 1548.85 L2264.59 1544.91 Q2267.25 1542.16 2271.83 1537.53 Q2276.44 1532.88 2277.62 1531.53 Q2279.87 1529.01 2280.75 1527.27 Q2281.65 1525.51 2281.65 1523.82 Q2281.65 1521.07 2279.7 1519.33 Q2277.78 1517.6 2274.68 1517.6 Q2272.48 1517.6 2270.03 1518.36 Q2267.6 1519.13 2264.82 1520.68 L2264.82 1515.95 Q2267.64 1514.82 2270.1 1514.24 Q2272.55 1513.66 2274.59 1513.66 Q2279.96 1513.66 2283.15 1516.35 Q2286.35 1519.03 2286.35 1523.52 Q2286.35 1525.65 2285.54 1527.57 Q2284.75 1529.47 2282.64 1532.07 Q2282.07 1532.74 2278.96 1535.95 Q2275.86 1539.15 2270.21 1544.91 Z" fill="#000000" fill-rule="nonzero" fill-opacity="1" /><path clip-path="url(#clip740)" d="M2306.35 1517.37 Q2302.74 1517.37 2300.91 1520.93 Q2299.1 1524.47 2299.1 1531.6 Q2299.1 1538.71 2300.91 1542.27 Q2302.74 1545.82 2306.35 1545.82 Q2309.98 1545.82 2311.79 1542.27 Q2313.62 1538.71 2313.62 1531.6 Q2313.62 1524.47 2311.79 1520.93 Q2309.98 1517.37 2306.35 1517.37 M2306.35 1513.66 Q2312.16 1513.66 2315.21 1518.27 Q2318.29 1522.85 2318.29 1531.6 Q2318.29 1540.33 2315.21 1544.94 Q2312.16 1549.52 2306.35 1549.52 Q2300.54 1549.52 2297.46 1544.94 Q2294.4 1540.33 2294.4 1531.6 Q2294.4 1522.85 2297.46 1518.27 Q2300.54 1513.66 2306.35 1513.66 Z" fill="#000000" fill-rule="nonzero" fill-opacity="1" /><polyline clip-path="url(#clip740)" style="stroke:#000000; stroke-linecap:round; stroke-linejoin:round; stroke-width:4; stroke-opacity:1; fill:none" points="186.274,1486.45 186.274,47.2441 "/>
<polyline clip-path="url(#clip740)" style="stroke:#000000; stroke-linecap:round; stroke-linejoin:round; stroke-width:4; stroke-opacity:1; fill:none" points="186.274,1445.72 205.172,1445.72 "/>
<polyline clip-path="url(#clip740)" style="stroke:#000000; stroke-linecap:round; stroke-linejoin:round; stroke-width:4; stroke-opacity:1; fill:none" points="186.274,1106.28 205.172,1106.28 "/>
<polyline clip-path="url(#clip740)" style="stroke:#000000; stroke-linecap:round; stroke-linejoin:round; stroke-width:4; stroke-opacity:1; fill:none" points="186.274,766.846 205.172,766.846 "/>
<polyline clip-path="url(#clip740)" style="stroke:#000000; stroke-linecap:round; stroke-linejoin:round; stroke-width:4; stroke-opacity:1; fill:none" points="186.274,427.411 205.172,427.411 "/>
<polyline clip-path="url(#clip740)" style="stroke:#000000; stroke-linecap:round; stroke-linejoin:round; stroke-width:4; stroke-opacity:1; fill:none" points="186.274,87.9763 205.172,87.9763 "/>
<path clip-path="url(#clip740)" d="M62.9365 1431.51 Q59.3254 1431.51 57.4967 1435.08 Q55.6912 1438.62 55.6912 1445.75 Q55.6912 1452.86 57.4967 1456.42 Q59.3254 1459.96 62.9365 1459.96 Q66.5707 1459.96 68.3763 1456.42 Q70.205 1452.86 70.205 1445.75 Q70.205 1438.62 68.3763 1435.08 Q66.5707 1431.51 62.9365 1431.51 M62.9365 1427.81 Q68.7467 1427.81 71.8022 1432.42 Q74.8809 1437 74.8809 1445.75 Q74.8809 1454.48 71.8022 1459.08 Q68.7467 1463.67 62.9365 1463.67 Q57.1264 1463.67 54.0477 1459.08 Q50.9921 1454.48 50.9921 1445.75 Q50.9921 1437 54.0477 1432.42 Q57.1264 1427.81 62.9365 1427.81 Z" fill="#000000" fill-rule="nonzero" fill-opacity="1" /><path clip-path="url(#clip740)" d="M83.0984 1457.12 L87.9827 1457.12 L87.9827 1463 L83.0984 1463 L83.0984 1457.12 Z" fill="#000000" fill-rule="nonzero" fill-opacity="1" /><path clip-path="url(#clip740)" d="M108.168 1431.51 Q104.557 1431.51 102.728 1435.08 Q100.922 1438.62 100.922 1445.75 Q100.922 1452.86 102.728 1456.42 Q104.557 1459.96 108.168 1459.96 Q111.802 1459.96 113.608 1456.42 Q115.436 1452.86 115.436 1445.75 Q115.436 1438.62 113.608 1435.08 Q111.802 1431.51 108.168 1431.51 M108.168 1427.81 Q113.978 1427.81 117.033 1432.42 Q120.112 1437 120.112 1445.75 Q120.112 1454.48 117.033 1459.08 Q113.978 1463.67 108.168 1463.67 Q102.358 1463.67 99.2789 1459.08 Q96.2234 1454.48 96.2234 1445.75 Q96.2234 1437 99.2789 1432.42 Q102.358 1427.81 108.168 1427.81 Z" fill="#000000" fill-rule="nonzero" fill-opacity="1" /><path clip-path="url(#clip740)" d="M138.33 1431.51 Q134.719 1431.51 132.89 1435.08 Q131.084 1438.62 131.084 1445.75 Q131.084 1452.86 132.89 1456.42 Q134.719 1459.96 138.33 1459.96 Q141.964 1459.96 143.769 1456.42 Q145.598 1452.86 145.598 1445.75 Q145.598 1438.62 143.769 1435.08 Q141.964 1431.51 138.33 1431.51 M138.33 1427.81 Q144.14 1427.81 147.195 1432.42 Q150.274 1437 150.274 1445.75 Q150.274 1454.48 147.195 1459.08 Q144.14 1463.67 138.33 1463.67 Q132.519 1463.67 129.441 1459.08 Q126.385 1454.48 126.385 1445.75 Q126.385 1437 129.441 1432.42 Q132.519 1427.81 138.33 1427.81 Z" fill="#000000" fill-rule="nonzero" fill-opacity="1" /><path clip-path="url(#clip740)" d="M63.9319 1092.08 Q60.3208 1092.08 58.4921 1095.64 Q56.6865 1099.19 56.6865 1106.32 Q56.6865 1113.42 58.4921 1116.99 Q60.3208 1120.53 63.9319 1120.53 Q67.5661 1120.53 69.3717 1116.99 Q71.2004 1113.42 71.2004 1106.32 Q71.2004 1099.19 69.3717 1095.64 Q67.5661 1092.08 63.9319 1092.08 M63.9319 1088.38 Q69.742 1088.38 72.7976 1092.98 Q75.8763 1097.57 75.8763 1106.32 Q75.8763 1115.04 72.7976 1119.65 Q69.742 1124.23 63.9319 1124.23 Q58.1217 1124.23 55.043 1119.65 Q51.9875 1115.04 51.9875 1106.32 Q51.9875 1097.57 55.043 1092.98 Q58.1217 1088.38 63.9319 1088.38 Z" fill="#000000" fill-rule="nonzero" fill-opacity="1" /><path clip-path="url(#clip740)" d="M84.0938 1117.68 L88.978 1117.68 L88.978 1123.56 L84.0938 1123.56 L84.0938 1117.68 Z" fill="#000000" fill-rule="nonzero" fill-opacity="1" /><path clip-path="url(#clip740)" d="M109.163 1092.08 Q105.552 1092.08 103.723 1095.64 Q101.918 1099.19 101.918 1106.32 Q101.918 1113.42 103.723 1116.99 Q105.552 1120.53 109.163 1120.53 Q112.797 1120.53 114.603 1116.99 Q116.432 1113.42 116.432 1106.32 Q116.432 1099.19 114.603 1095.64 Q112.797 1092.08 109.163 1092.08 M109.163 1088.38 Q114.973 1088.38 118.029 1092.98 Q121.107 1097.57 121.107 1106.32 Q121.107 1115.04 118.029 1119.65 Q114.973 1124.23 109.163 1124.23 Q103.353 1124.23 100.274 1119.65 Q97.2187 1115.04 97.2187 1106.32 Q97.2187 1097.57 100.274 1092.98 Q103.353 1088.38 109.163 1088.38 Z" fill="#000000" fill-rule="nonzero" fill-opacity="1" /><path clip-path="url(#clip740)" d="M129.371 1089 L147.728 1089 L147.728 1092.94 L133.654 1092.94 L133.654 1101.41 Q134.672 1101.06 135.691 1100.9 Q136.709 1100.71 137.728 1100.71 Q143.515 1100.71 146.894 1103.89 Q150.274 1107.06 150.274 1112.47 Q150.274 1118.05 146.802 1121.15 Q143.33 1124.23 137.01 1124.23 Q134.834 1124.23 132.566 1123.86 Q130.32 1123.49 127.913 1122.75 L127.913 1118.05 Q129.996 1119.19 132.219 1119.74 Q134.441 1120.3 136.918 1120.3 Q140.922 1120.3 143.26 1118.19 Q145.598 1116.08 145.598 1112.47 Q145.598 1108.86 143.26 1106.76 Q140.922 1104.65 136.918 1104.65 Q135.043 1104.65 133.168 1105.07 Q131.316 1105.48 129.371 1106.36 L129.371 1089 Z" fill="#000000" fill-rule="nonzero" fill-opacity="1" /><path clip-path="url(#clip740)" d="M62.9365 752.645 Q59.3254 752.645 57.4967 756.209 Q55.6912 759.751 55.6912 766.881 Q55.6912 773.987 57.4967 777.552 Q59.3254 781.094 62.9365 781.094 Q66.5707 781.094 68.3763 777.552 Q70.205 773.987 70.205 766.881 Q70.205 759.751 68.3763 756.209 Q66.5707 752.645 62.9365 752.645 M62.9365 748.941 Q68.7467 748.941 71.8022 753.547 Q74.8809 758.131 74.8809 766.881 Q74.8809 775.608 71.8022 780.214 Q68.7467 784.797 62.9365 784.797 Q57.1264 784.797 54.0477 780.214 Q50.9921 775.608 50.9921 766.881 Q50.9921 758.131 54.0477 753.547 Q57.1264 748.941 62.9365 748.941 Z" fill="#000000" fill-rule="nonzero" fill-opacity="1" /><path clip-path="url(#clip740)" d="M83.0984 778.246 L87.9827 778.246 L87.9827 784.126 L83.0984 784.126 L83.0984 778.246 Z" fill="#000000" fill-rule="nonzero" fill-opacity="1" /><path clip-path="url(#clip740)" d="M98.978 780.191 L106.617 780.191 L106.617 753.825 L98.3067 755.492 L98.3067 751.233 L106.571 749.566 L111.246 749.566 L111.246 780.191 L118.885 780.191 L118.885 784.126 L98.978 784.126 L98.978 780.191 Z" fill="#000000" fill-rule="nonzero" fill-opacity="1" /><path clip-path="url(#clip740)" d="M138.33 752.645 Q134.719 752.645 132.89 756.209 Q131.084 759.751 131.084 766.881 Q131.084 773.987 132.89 777.552 Q134.719 781.094 138.33 781.094 Q141.964 781.094 143.769 777.552 Q145.598 773.987 145.598 766.881 Q145.598 759.751 143.769 756.209 Q141.964 752.645 138.33 752.645 M138.33 748.941 Q144.14 748.941 147.195 753.547 Q150.274 758.131 150.274 766.881 Q150.274 775.608 147.195 780.214 Q144.14 784.797 138.33 784.797 Q132.519 784.797 129.441 780.214 Q126.385 775.608 126.385 766.881 Q126.385 758.131 129.441 753.547 Q132.519 748.941 138.33 748.941 Z" fill="#000000" fill-rule="nonzero" fill-opacity="1" /><path clip-path="url(#clip740)" d="M63.9319 413.21 Q60.3208 413.21 58.4921 416.775 Q56.6865 420.316 56.6865 427.446 Q56.6865 434.552 58.4921 438.117 Q60.3208 441.659 63.9319 441.659 Q67.5661 441.659 69.3717 438.117 Q71.2004 434.552 71.2004 427.446 Q71.2004 420.316 69.3717 416.775 Q67.5661 413.21 63.9319 413.21 M63.9319 409.506 Q69.742 409.506 72.7976 414.113 Q75.8763 418.696 75.8763 427.446 Q75.8763 436.173 72.7976 440.779 Q69.742 445.362 63.9319 445.362 Q58.1217 445.362 55.043 440.779 Q51.9875 436.173 51.9875 427.446 Q51.9875 418.696 55.043 414.113 Q58.1217 409.506 63.9319 409.506 Z" fill="#000000" fill-rule="nonzero" fill-opacity="1" /><path clip-path="url(#clip740)" d="M84.0938 438.812 L88.978 438.812 L88.978 444.691 L84.0938 444.691 L84.0938 438.812 Z" fill="#000000" fill-rule="nonzero" fill-opacity="1" /><path clip-path="url(#clip740)" d="M99.9733 440.756 L107.612 440.756 L107.612 414.39 L99.3021 416.057 L99.3021 411.798 L107.566 410.131 L112.242 410.131 L112.242 440.756 L119.881 440.756 L119.881 444.691 L99.9733 444.691 L99.9733 440.756 Z" fill="#000000" fill-rule="nonzero" fill-opacity="1" /><path clip-path="url(#clip740)" d="M129.371 410.131 L147.728 410.131 L147.728 414.066 L133.654 414.066 L133.654 422.538 Q134.672 422.191 135.691 422.029 Q136.709 421.844 137.728 421.844 Q143.515 421.844 146.894 425.015 Q150.274 428.187 150.274 433.603 Q150.274 439.182 146.802 442.284 Q143.33 445.362 137.01 445.362 Q134.834 445.362 132.566 444.992 Q130.32 444.622 127.913 443.881 L127.913 439.182 Q129.996 440.316 132.219 440.872 Q134.441 441.427 136.918 441.427 Q140.922 441.427 143.26 439.321 Q145.598 437.214 145.598 433.603 Q145.598 429.992 143.26 427.886 Q140.922 425.779 136.918 425.779 Q135.043 425.779 133.168 426.196 Q131.316 426.613 129.371 427.492 L129.371 410.131 Z" fill="#000000" fill-rule="nonzero" fill-opacity="1" /><path clip-path="url(#clip740)" d="M62.9365 73.775 Q59.3254 73.775 57.4967 77.3398 Q55.6912 80.8814 55.6912 88.011 Q55.6912 95.1174 57.4967 98.6822 Q59.3254 102.224 62.9365 102.224 Q66.5707 102.224 68.3763 98.6822 Q70.205 95.1174 70.205 88.011 Q70.205 80.8814 68.3763 77.3398 Q66.5707 73.775 62.9365 73.775 M62.9365 70.0713 Q68.7467 70.0713 71.8022 74.6777 Q74.8809 79.261 74.8809 88.011 Q74.8809 96.7378 71.8022 101.344 Q68.7467 105.928 62.9365 105.928 Q57.1264 105.928 54.0477 101.344 Q50.9921 96.7378 50.9921 88.011 Q50.9921 79.261 54.0477 74.6777 Q57.1264 70.0713 62.9365 70.0713 Z" fill="#000000" fill-rule="nonzero" fill-opacity="1" /><path clip-path="url(#clip740)" d="M83.0984 99.3767 L87.9827 99.3767 L87.9827 105.256 L83.0984 105.256 L83.0984 99.3767 Z" fill="#000000" fill-rule="nonzero" fill-opacity="1" /><path clip-path="url(#clip740)" d="M102.196 101.321 L118.515 101.321 L118.515 105.256 L96.5706 105.256 L96.5706 101.321 Q99.2326 98.5665 103.816 93.9369 Q108.422 89.2841 109.603 87.9416 Q111.848 85.4184 112.728 83.6823 Q113.631 81.9231 113.631 80.2333 Q113.631 77.4786 111.686 75.7425 Q109.765 74.0064 106.663 74.0064 Q104.464 74.0064 102.01 74.7703 Q99.5798 75.5342 96.8021 77.0851 L96.8021 72.3629 Q99.6261 71.2287 102.08 70.65 Q104.534 70.0713 106.571 70.0713 Q111.941 70.0713 115.135 72.7565 Q118.33 75.4416 118.33 79.9323 Q118.33 82.062 117.52 83.9832 Q116.733 85.8814 114.626 88.474 Q114.047 89.1453 110.946 92.3628 Q107.844 95.5573 102.196 101.321 Z" fill="#000000" fill-rule="nonzero" fill-opacity="1" /><path clip-path="url(#clip740)" d="M138.33 73.775 Q134.719 73.775 132.89 77.3398 Q131.084 80.8814 131.084 88.011 Q131.084 95.1174 132.89 98.6822 Q134.719 102.224 138.33 102.224 Q141.964 102.224 143.769 98.6822 Q145.598 95.1174 145.598 88.011 Q145.598 80.8814 143.769 77.3398 Q141.964 73.775 138.33 73.775 M138.33 70.0713 Q144.14 70.0713 147.195 74.6777 Q150.274 79.261 150.274 88.011 Q150.274 96.7378 147.195 101.344 Q144.14 105.928 138.33 105.928 Q132.519 105.928 129.441 101.344 Q126.385 96.7378 126.385 88.011 Q126.385 79.261 129.441 74.6777 Q132.519 70.0713 138.33 70.0713 Z" fill="#000000" fill-rule="nonzero" fill-opacity="1" /><polyline clip-path="url(#clip741)" style="stroke:#009af9; stroke-linecap:round; stroke-linejoin:round; stroke-width:4; stroke-opacity:1; fill:none" points="247.59,1445.72 268.69,1445.72 392.271,1445.72 449.761,1445.72 526.819,1445.72 590.493,1445.71 649.703,1445.71 724.033,1445.71 790.706,1445.71 867.024,1445.71 924.071,1445.7 997.035,1445.69 1063.63,1445.67 1139.42,1445.63 1199.51,1445.58 1274.15,1445.46 1331.32,1445.3 1411.91,1444.89 1472.14,1444.35 1540.63,1443.28 1608.47,1441.4 1683.09,1437.62 1740.09,1432.64 1776.06,1428.01 1812.03,1421.75 1845.29,1414 1878.56,1403.75 1895.71,1397.23 1912.86,1389.69 1930.02,1380.99 1947.17,1370.93 1964.56,1359.14 1981.94,1345.49 1999.33,1329.69 2016.72,1311.39 2025.79,1300.72 2034.87,1289.2 2043.95,1276.77 2053.03,1263.35 2062.11,1248.86 2071.18,1233.23 2080.26,1216.35 2089.34,1198.13 2096.49,1182.76 2103.64,1166.44 2110.79,1149.11 2117.94,1130.7 2125.09,1111.15 2132.24,1090.38 2139.39,1068.33 2146.54,1044.91 2154.69,1016.46 2162.83,986.001 2170.97,953.376 2179.11,918.435 2187.26,881.015 2195.4,840.939 2203.54,798.019 2211.68,752.052 2215.76,727.86 2219.83,702.824 2223.9,676.915 2227.97,650.102 2232.04,622.354 2236.11,593.638 2240.18,563.921 2244.25,533.167 2248.33,501.341 2252.4,468.405 2256.47,434.32 2260.54,399.047 2264.61,362.543 2268.68,324.766 2272.75,285.671 2276.82,245.213 2278.65,226.601 2280.48,207.699 2282.3,188.505 2284.13,169.013 2285.96,149.219 2287.79,129.118 2289.61,108.705 2291.44,87.9763 "/>
<path clip-path="url(#clip740)" d="M258.49 198.898 L527.569 198.898 L527.569 95.2176 L258.49 95.2176  Z" fill="#ffffff" fill-rule="evenodd" fill-opacity="1"/>
<polyline clip-path="url(#clip740)" style="stroke:#000000; stroke-linecap:round; stroke-linejoin:round; stroke-width:4; stroke-opacity:1; fill:none" points="258.49,198.898 527.569,198.898 527.569,95.2176 258.49,95.2176 258.49,198.898 "/>
<polyline clip-path="url(#clip740)" style="stroke:#009af9; stroke-linecap:round; stroke-linejoin:round; stroke-width:4; stroke-opacity:1; fill:none" points="282.562,147.058 426.994,147.058 "/>
<path clip-path="url(#clip740)" d="M464.909 166.745 Q463.103 171.375 461.39 172.787 Q459.677 174.199 456.807 174.199 L453.404 174.199 L453.404 170.634 L455.904 170.634 Q457.663 170.634 458.636 169.8 Q459.608 168.967 460.788 165.865 L461.552 163.921 L451.066 138.412 L455.58 138.412 L463.682 158.689 L471.784 138.412 L476.298 138.412 L464.909 166.745 Z" fill="#000000" fill-rule="nonzero" fill-opacity="1" /><path clip-path="url(#clip740)" d="M483.589 160.402 L491.228 160.402 L491.228 134.037 L482.918 135.703 L482.918 131.444 L491.182 129.778 L495.858 129.778 L495.858 160.402 L503.497 160.402 L503.497 164.338 L483.589 164.338 L483.589 160.402 Z" fill="#000000" fill-rule="nonzero" fill-opacity="1" /></svg>
