<?xml version="1.0" encoding="utf-8"?>
<svg xmlns="http://www.w3.org/2000/svg" xmlns:xlink="http://www.w3.org/1999/xlink" width="600" height="400" viewBox="0 0 2400 1600">
<defs>
  <clipPath id="clip680">
    <rect x="0" y="0" width="2400" height="1600"/>
  </clipPath>
</defs>
<path clip-path="url(#clip680)" d="M0 1600 L2400 1600 L2400 0 L0 0  Z" fill="#ffffff" fill-rule="evenodd" fill-opacity="1"/>
<defs>
  <clipPath id="clip681">
    <rect x="186" y="47" width="2167" height="1440"/>
  </clipPath>
</defs>
<path clip-path="url(#clip680)" d="M186.274 1486.45 L2352.76 1486.45 L2352.76 47.2441 L186.274 47.2441  Z" fill="#ffffff" fill-rule="evenodd" fill-opacity="1"/>
<polyline clip-path="url(#clip681)" style="stroke:#000000; stroke-linecap:round; stroke-linejoin:round; stroke-width:2; stroke-opacity:0.1; fill:none" points="247.59,1486.45 247.59,47.2441 "/>
<polyline clip-path="url(#clip681)" style="stroke:#000000; stroke-linecap:round; stroke-linejoin:round; stroke-width:2; stroke-opacity:0.1; fill:none" points="802.36,1486.45 802.36,47.2441 "/>
<polyline clip-path="url(#clip681)" style="stroke:#000000; stroke-linecap:round; stroke-linejoin:round; stroke-width:2; stroke-opacity:0.1; fill:none" points="1357.13,1486.45 1357.13,47.2441 "/>
<polyline clip-path="url(#clip681)" style="stroke:#000000; stroke-linecap:round; stroke-linejoin:round; stroke-width:2; stroke-opacity:0.1; fill:none" points="1911.9,1486.45 1911.9,47.2441 "/>
<polyline clip-path="url(#clip681)" style="stroke:#000000; stroke-linecap:round; stroke-linejoin:round; stroke-width:2; stroke-opacity:0.1; fill:none" points="186.274,1445.85 2352.76,1445.85 "/>
<polyline clip-path="url(#clip681)" style="stroke:#000000; stroke-linecap:round; stroke-linejoin:round; stroke-width:2; stroke-opacity:0.1; fill:none" points="186.274,1174.28 2352.76,1174.28 "/>
<polyline clip-path="url(#clip681)" style="stroke:#000000; stroke-linecap:round; stroke-linejoin:round; stroke-width:2; stroke-opacity:0.1; fill:none" points="186.274,902.701 2352.76,902.701 "/>
<polyline clip-path="url(#clip681)" style="stroke:#000000; stroke-linecap:round; stroke-linejoin:round; stroke-width:2; stroke-opacity:0.1; fill:none" points="186.274,631.126 2352.76,631.126 "/>
<polyline clip-path="url(#clip681)" style="stroke:#000000; stroke-linecap:round; stroke-linejoin:round; stroke-width:2; stroke-opacity:0.1; fill:none" points="186.274,359.551 2352.76,359.551 "/>
<polyline clip-path="url(#clip681)" style="stroke:#000000; stroke-linecap:round; stroke-linejoin:round; stroke-width:2; stroke-opacity:0.1; fill:none" points="186.274,87.9763 2352.76,87.9763 "/>
<polyline clip-path="url(#clip680)" style="stroke:#000000; stroke-linecap:round; stroke-linejoin:round; stroke-width:4; stroke-opacity:1; fill:none" points="186.274,1486.45 2352.76,1486.45 "/>
<polyline clip-path="url(#clip680)" style="stroke:#000000; stroke-linecap:round; stroke-linejoin:round; stroke-width:4; stroke-opacity:1; fill:none" points="247.59,1486.45 247.59,1467.55 "/>
<polyline clip-path="url(#clip680)" style="stroke:#000000; stroke-linecap:round; stroke-linejoin:round; stroke-width:4; stroke-opacity:1; fill:none" points="802.36,1486.45 802.36,1467.55 "/>
<polyline clip-path="url(#clip680)" style="stroke:#000000; stroke-linecap:round; stroke-linejoin:round; stroke-width:4; stroke-opacity:1; fill:none" points="1357.13,1486.45 1357.13,1467.55 "/>
<polyline clip-path="url(#clip680)" style="stroke:#000000; stroke-linecap:round; stroke-linejoin:round; stroke-width:4; stroke-opacity:1; fill:none" points="1911.9,1486.45 1911.9,1467.55 "/>
<path clip-path="url(#clip680)" d="M222.277 1544.91 L229.916 1544.91 L229.916 1518.55 L221.606 1520.21 L221.606 1515.95 L229.87 1514.29 L234.546 1514.29 L234.546 1544.91 L242.184 1544.91 L242.184 1548.85 L222.277 1548.85 L222.277 1544.91 Z" fill="#000000" fill-rule="nonzero" fill-opacity="1" /><path clip-path="url(#clip680)" d="M261.629 1517.37 Q258.018 1517.37 256.189 1520.93 Q254.383 1524.47 254.383 1531.6 Q254.383 1538.71 256.189 1542.27 Q258.018 1545.82 261.629 1545.82 Q265.263 1545.82 267.069 1542.27 Q268.897 1538.71 268.897 1531.6 Q268.897 1524.47 267.069 1520.93 Q265.263 1517.37 261.629 1517.37 M261.629 1513.66 Q267.439 1513.66 270.494 1518.27 Q273.573 1522.85 273.573 1531.6 Q273.573 1540.33 270.494 1544.94 Q267.439 1549.52 261.629 1549.52 Q255.819 1549.52 252.74 1544.94 Q249.684 1540.33 249.684 1531.6 Q249.684 1522.85 252.74 1518.27 Q255.819 1513.66 261.629 1513.66 Z" fill="#000000" fill-rule="nonzero" fill-opacity="1" /><path clip-path="url(#clip680)" d="M781.134 1544.91 L797.453 1544.91 L797.453 1548.85 L775.509 1548.85 L775.509 1544.91 Q778.171 1542.16 782.754 1537.53 Q787.36 1532.88 788.541 1531.53 Q790.786 1529.01 791.666 1527.27 Q792.569 1525.51 792.569 1523.82 Q792.569 1521.07 790.624 1519.33 Q788.703 1517.6 785.601 1517.6 Q783.402 1517.6 780.948 1518.36 Q778.518 1519.13 775.74 1520.68 L775.74 1515.95 Q778.564 1514.82 781.018 1514.24 Q783.471 1513.66 785.508 1513.66 Q790.879 1513.66 794.073 1516.35 Q797.268 1519.03 797.268 1523.52 Q797.268 1525.65 796.457 1527.57 Q795.67 1529.47 793.564 1532.07 Q792.985 1532.74 789.883 1535.95 Q786.782 1539.15 781.134 1544.91 Z" fill="#000000" fill-rule="nonzero" fill-opacity="1" /><path clip-path="url(#clip680)" d="M817.268 1517.37 Q813.656 1517.37 811.828 1520.93 Q810.022 1524.47 810.022 1531.6 Q810.022 1538.71 811.828 1542.27 Q813.656 1545.82 817.268 1545.82 Q820.902 1545.82 822.707 1542.27 Q824.536 1538.71 824.536 1531.6 Q824.536 1524.47 822.707 1520.93 Q820.902 1517.37 817.268 1517.37 M817.268 1513.66 Q823.078 1513.66 826.133 1518.27 Q829.212 1522.85 829.212 1531.6 Q829.212 1540.33 826.133 1544.94 Q823.078 1549.52 817.268 1549.52 Q811.457 1549.52 808.379 1544.94 Q805.323 1540.33 805.323 1531.6 Q805.323 1522.85 808.379 1518.27 Q811.457 1513.66 817.268 1513.66 Z" fill="#000000" fill-rule="nonzero" fill-opacity="1" /><path clip-path="url(#clip680)" d="M1345.97 1530.21 Q1349.33 1530.93 1351.21 1533.2 Q1353.1 1535.47 1353.1 1538.8 Q1353.1 1543.92 1349.58 1546.72 Q1346.07 1549.52 1339.58 1549.52 Q1337.41 1549.52 1335.09 1549.08 Q1332.8 1548.66 1330.35 1547.81 L1330.35 1543.29 Q1332.29 1544.43 1334.61 1545.01 Q1336.92 1545.58 1339.45 1545.58 Q1343.84 1545.58 1346.14 1543.85 Q1348.45 1542.11 1348.45 1538.8 Q1348.45 1535.75 1346.3 1534.03 Q1344.17 1532.3 1340.35 1532.3 L1336.32 1532.3 L1336.32 1528.45 L1340.53 1528.45 Q1343.98 1528.45 1345.81 1527.09 Q1347.64 1525.7 1347.64 1523.11 Q1347.64 1520.45 1345.74 1519.03 Q1343.87 1517.6 1340.35 1517.6 Q1338.43 1517.6 1336.23 1518.01 Q1334.03 1518.43 1331.39 1519.31 L1331.39 1515.14 Q1334.05 1514.4 1336.37 1514.03 Q1338.71 1513.66 1340.77 1513.66 Q1346.09 1513.66 1349.19 1516.09 Q1352.29 1518.5 1352.29 1522.62 Q1352.29 1525.49 1350.65 1527.48 Q1349.01 1529.45 1345.97 1530.21 Z" fill="#000000" fill-rule="nonzero" fill-opacity="1" /><path clip-path="url(#clip680)" d="M1371.97 1517.37 Q1368.36 1517.37 1366.53 1520.93 Q1364.72 1524.47 1364.72 1531.6 Q1364.72 1538.71 1366.53 1542.27 Q1368.36 1545.82 1371.97 1545.82 Q1375.6 1545.82 1377.41 1542.27 Q1379.24 1538.71 1379.24 1531.6 Q1379.24 1524.47 1377.41 1520.93 Q1375.6 1517.37 1371.97 1517.37 M1371.97 1513.66 Q1377.78 1513.66 1380.83 1518.27 Q1383.91 1522.85 1383.91 1531.6 Q1383.91 1540.33 1380.83 1544.94 Q1377.78 1549.52 1371.97 1549.52 Q1366.16 1549.52 1363.08 1544.94 Q1360.02 1540.33 1360.02 1531.6 Q1360.02 1522.85 1363.08 1518.27 Q1366.16 1513.66 1371.97 1513.66 Z" fill="#000000" fill-rule="nonzero" fill-opacity="1" /><path clip-path="url(#clip680)" d="M1900.07 1518.36 L1888.27 1536.81 L1900.07 1536.81 L1900.07 1518.36 M1898.85 1514.29 L1904.73 1514.29 L1904.73 1536.81 L1909.66 1536.81 L1909.66 1540.7 L1904.73 1540.7 L1904.73 1548.85 L1900.07 1548.85 L1900.07 1540.7 L1884.47 1540.7 L1884.47 1536.19 L1898.85 1514.29 Z" fill="#000000" fill-rule="nonzero" fill-opacity="1" /><path clip-path="url(#clip680)" d="M1927.39 1517.37 Q1923.78 1517.37 1921.95 1520.93 Q1920.14 1524.47 1920.14 1531.6 Q1920.14 1538.71 1921.95 1542.27 Q1923.78 1545.82 1927.39 1545.82 Q1931.02 1545.82 1932.83 1542.27 Q1934.66 1538.71 1934.66 1531.6 Q1934.66 1524.47 1932.83 1520.93 Q1931.02 1517.37 1927.39 1517.37 M1927.39 1513.66 Q1933.2 1513.66 1936.25 1518.27 Q1939.33 1522.85 1939.33 1531.6 Q1939.33 1540.33 1936.25 1544.94 Q1933.2 1549.52 1927.39 1549.52 Q1921.58 1549.52 1918.5 1544.94 Q1915.44 1540.33 1915.44 1531.6 Q1915.44 1522.85 1918.5 1518.27 Q1921.58 1513.66 1927.39 1513.66 Z" fill="#000000" fill-rule="nonzero" fill-opacity="1" /><polyline clip-path="url(#clip680)" style="stroke:#000000; stroke-linecap:round; stroke-linejoin:round; stroke-width:4; stroke-opacity:1; fill:none" points="186.274,1486.45 186.274,47.2441 "/>
<polyline clip-path="url(#clip680)" style="stroke:#000000; stroke-linecap:round; stroke-linejoin:round; stroke-width:4; stroke-opacity:1; fill:none" points="186.274,1445.85 205.172,1445.85 "/>
<polyline clip-path="url(#clip680)" style="stroke:#000000; stroke-linecap:round; stroke-linejoin:round; stroke-width:4; stroke-opacity:1; fill:none" points="186.274,1174.28 205.172,1174.28 "/>
<polyline clip-path="url(#clip680)" style="stroke:#000000; stroke-linecap:round; stroke-linejoin:round; stroke-width:4; stroke-opacity:1; fill:none" points="186.274,902.701 205.172,902.701 "/>
<polyline clip-path="url(#clip680)" style="stroke:#000000; stroke-linecap:round; stroke-linejoin:round; stroke-width:4; stroke-opacity:1; fill:none" points="186.274,631.126 205.172,631.126 "/>
<polyline clip-path="url(#clip680)" style="stroke:#000000; stroke-linecap:round; stroke-linejoin:round; stroke-width:4; stroke-opacity:1; fill:none" points="186.274,359.551 205.172,359.551 "/>
<polyline clip-path="url(#clip680)" style="stroke:#000000; stroke-linecap:round; stroke-linejoin:round; stroke-width:4; stroke-opacity:1; fill:none" points="186.274,87.9763 205.172,87.9763 "/>
<path clip-path="url(#clip680)" d="M62.9365 1431.65 Q59.3254 1431.65 57.4967 1435.21 Q55.6912 1438.76 55.6912 1445.89 Q55.6912 1452.99 57.4967 1456.56 Q59.3254 1460.1 62.9365 1460.1 Q66.5707 1460.1 68.3763 1456.56 Q70.205 1452.99 70.205 1445.89 Q70.205 1438.76 68.3763 1435.21 Q66.5707 1431.65 62.9365 1431.65 M62.9365 1427.95 Q68.7467 1427.95 71.8022 1432.55 Q74.8809 1437.14 74.8809 1445.89 Q74.8809 1454.61 71.8022 1459.22 Q68.7467 1463.8 62.9365 1463.8 Q57.1264 1463.8 54.0477 1459.22 Q50.9921 1454.61 50.9921 1445.89 Q50.9921 1437.14 54.0477 1432.55 Q57.1264 1427.95 62.9365 1427.95 Z" fill="#000000" fill-rule="nonzero" fill-opacity="1" /><path clip-path="url(#clip680)" d="M83.0984 1457.25 L87.9827 1457.25 L87.9827 1463.13 L83.0984 1463.13 L83.0984 1457.25 Z" fill="#000000" fill-rule="nonzero" fill-opacity="1" /><path clip-path="url(#clip680)" d="M108.168 1431.65 Q104.557 1431.65 102.728 1435.21 Q100.922 1438.76 100.922 1445.89 Q100.922 1452.99 102.728 1456.56 Q104.557 1460.1 108.168 1460.1 Q111.802 1460.1 113.608 1456.56 Q115.436 1452.99 115.436 1445.89 Q115.436 1438.76 113.608 1435.21 Q111.802 1431.65 108.168 1431.65 M108.168 1427.95 Q113.978 1427.95 117.033 1432.55 Q120.112 1437.14 120.112 1445.89 Q120.112 1454.61 117.033 1459.22 Q113.978 1463.8 108.168 1463.8 Q102.358 1463.8 99.2789 1459.22 Q96.2234 1454.61 96.2234 1445.89 Q96.2234 1437.14 99.2789 1432.55 Q102.358 1427.95 108.168 1427.95 Z" fill="#000000" fill-rule="nonzero" fill-opacity="1" /><path clip-path="url(#clip680)" d="M138.33 1431.65 Q134.719 1431.65 132.89 1435.21 Q131.084 1438.76 131.084 1445.89 Q131.084 1452.99 132.89 1456.56 Q134.719 1460.1 138.33 1460.1 Q141.964 1460.1 143.769 1456.56 Q145.598 1452.99 145.598 1445.89 Q145.598 1438.76 143.769 1435.21 Q141.964 1431.65 138.33 1431.65 M138.33 1427.95 Q144.14 1427.95 147.195 1432.55 Q150.274 1437.14 150.274 1445.89 Q150.274 1454.61 147.195 1459.22 Q144.14 1463.8 138.33 1463.8 Q132.519 1463.8 129.441 1459.22 Q126.385 1454.61 126.385 1445.89 Q126.385 1437.14 129.441 1432.55 Q132.519 1427.95 138.33 1427.95 Z" fill="#000000" fill-rule="nonzero" fill-opacity="1" /><path clip-path="url(#clip680)" d="M63.9319 1160.08 Q60.3208 1160.08 58.4921 1163.64 Q56.6865 1167.18 56.6865 1174.31 Q56.6865 1181.42 58.4921 1184.98 Q60.3208 1188.52 63.9319 1188.52 Q67.5661 1188.52 69.3717 1184.98 Q71.2004 1181.42 71.2004 1174.31 Q71.2004 1167.18 69.3717 1163.64 Q67.5661 1160.08 63.9319 1160.08 M63.9319 1156.37 Q69.742 1156.37 72.7976 1160.98 Q75.8763 1165.56 75.8763 1174.31 Q75.8763 1183.04 72.7976 1187.64 Q69.742 1192.23 63.9319 1192.23 Q58.1217 1192.23 55.043 1187.64 Q51.9875 1183.04 51.9875 1174.31 Q51.9875 1165.56 55.043 1160.98 Q58.1217 1156.37 63.9319 1156.37 Z" fill="#000000" fill-rule="nonzero" fill-opacity="1" /><path clip-path="url(#clip680)" d="M84.0938 1185.68 L88.978 1185.68 L88.978 1191.56 L84.0938 1191.56 L84.0938 1185.68 Z" fill="#000000" fill-rule="nonzero" fill-opacity="1" /><path clip-path="url(#clip680)" d="M109.163 1160.08 Q105.552 1160.08 103.723 1163.64 Q101.918 1167.18 101.918 1174.31 Q101.918 1181.42 103.723 1184.98 Q105.552 1188.52 109.163 1188.52 Q112.797 1188.52 114.603 1184.98 Q116.432 1181.42 116.432 1174.31 Q116.432 1167.18 114.603 1163.64 Q112.797 1160.08 109.163 1160.08 M109.163 1156.37 Q114.973 1156.37 118.029 1160.98 Q121.107 1165.56 121.107 1174.31 Q121.107 1183.04 118.029 1187.64 Q114.973 1192.23 109.163 1192.23 Q103.353 1192.23 100.274 1187.64 Q97.2187 1183.04 97.2187 1174.31 Q97.2187 1165.56 100.274 1160.98 Q103.353 1156.37 109.163 1156.37 Z" fill="#000000" fill-rule="nonzero" fill-opacity="1" /><path clip-path="url(#clip680)" d="M129.371 1157 L147.728 1157 L147.728 1160.93 L133.654 1160.93 L133.654 1169.4 Q134.672 1169.06 135.691 1168.89 Q136.709 1168.71 137.728 1168.71 Q143.515 1168.71 146.894 1171.88 Q150.274 1175.05 150.274 1180.47 Q150.274 1186.05 146.802 1189.15 Q143.33 1192.23 137.01 1192.23 Q134.834 1192.23 132.566 1191.86 Q130.32 1191.49 127.913 1190.75 L127.913 1186.05 Q129.996 1187.18 132.219 1187.74 Q134.441 1188.29 136.918 1188.29 Q140.922 1188.29 143.26 1186.19 Q145.598 1184.08 145.598 1180.47 Q145.598 1176.86 143.26 1174.75 Q140.922 1172.64 136.918 1172.64 Q135.043 1172.64 133.168 1173.06 Q131.316 1173.48 129.371 1174.36 L129.371 1157 Z" fill="#000000" fill-rule="nonzero" fill-opacity="1" /><path clip-path="url(#clip680)" d="M62.9365 888.5 Q59.3254 888.5 57.4967 892.065 Q55.6912 895.607 55.6912 902.736 Q55.6912 909.843 57.4967 913.407 Q59.3254 916.949 62.9365 916.949 Q66.5707 916.949 68.3763 913.407 Q70.205 909.843 70.205 902.736 Q70.205 895.607 68.3763 892.065 Q66.5707 888.5 62.9365 888.5 M62.9365 884.796 Q68.7467 884.796 71.8022 889.403 Q74.8809 893.986 74.8809 902.736 Q74.8809 911.463 71.8022 916.069 Q68.7467 920.653 62.9365 920.653 Q57.1264 920.653 54.0477 916.069 Q50.9921 911.463 50.9921 902.736 Q50.9921 893.986 54.0477 889.403 Q57.1264 884.796 62.9365 884.796 Z" fill="#000000" fill-rule="nonzero" fill-opacity="1" /><path clip-path="url(#clip680)" d="M83.0984 914.102 L87.9827 914.102 L87.9827 919.981 L83.0984 919.981 L83.0984 914.102 Z" fill="#000000" fill-rule="nonzero" fill-opacity="1" /><path clip-path="url(#clip680)" d="M98.978 916.046 L106.617 916.046 L106.617 889.681 L98.3067 891.347 L98.3067 887.088 L106.571 885.421 L111.246 885.421 L111.246 916.046 L118.885 916.046 L118.885 919.981 L98.978 919.981 L98.978 916.046 Z" fill="#000000" fill-rule="nonzero" fill-opacity="1" /><path clip-path="url(#clip680)" d="M138.33 888.5 Q134.719 888.5 132.89 892.065 Q131.084 895.607 131.084 902.736 Q131.084 909.843 132.89 913.407 Q134.719 916.949 138.33 916.949 Q141.964 916.949 143.769 913.407 Q145.598 909.843 145.598 902.736 Q145.598 895.607 143.769 892.065 Q141.964 888.5 138.33 888.5 M138.33 884.796 Q144.14 884.796 147.195 889.403 Q150.274 893.986 150.274 902.736 Q150.274 911.463 147.195 916.069 Q144.14 920.653 138.33 920.653 Q132.519 920.653 129.441 916.069 Q126.385 911.463 126.385 902.736 Q126.385 893.986 129.441 889.403 Q132.519 884.796 138.33 884.796 Z" fill="#000000" fill-rule="nonzero" fill-opacity="1" /><path clip-path="url(#clip680)" d="M63.9319 616.925 Q60.3208 616.925 58.4921 620.49 Q56.6865 624.031 56.6865 631.161 Q56.6865 638.268 58.4921 641.832 Q60.3208 645.374 63.9319 645.374 Q67.5661 645.374 69.3717 641.832 Q71.2004 638.268 71.2004 631.161 Q71.2004 624.031 69.3717 620.49 Q67.5661 616.925 63.9319 616.925 M63.9319 613.221 Q69.742 613.221 72.7976 617.828 Q75.8763 622.411 75.8763 631.161 Q75.8763 639.888 72.7976 644.494 Q69.742 649.078 63.9319 649.078 Q58.1217 649.078 55.043 644.494 Q51.9875 639.888 51.9875 631.161 Q51.9875 622.411 55.043 617.828 Q58.1217 613.221 63.9319 613.221 Z" fill="#000000" fill-rule="nonzero" fill-opacity="1" /><path clip-path="url(#clip680)" d="M84.0938 642.527 L88.978 642.527 L88.978 648.406 L84.0938 648.406 L84.0938 642.527 Z" fill="#000000" fill-rule="nonzero" fill-opacity="1" /><path clip-path="url(#clip680)" d="M99.9733 644.471 L107.612 644.471 L107.612 618.106 L99.3021 619.772 L99.3021 615.513 L107.566 613.846 L112.242 613.846 L112.242 644.471 L119.881 644.471 L119.881 648.406 L99.9733 648.406 L99.9733 644.471 Z" fill="#000000" fill-rule="nonzero" fill-opacity="1" /><path clip-path="url(#clip680)" d="M129.371 613.846 L147.728 613.846 L147.728 617.782 L133.654 617.782 L133.654 626.254 Q134.672 625.906 135.691 625.744 Q136.709 625.559 137.728 625.559 Q143.515 625.559 146.894 628.731 Q150.274 631.902 150.274 637.318 Q150.274 642.897 146.802 645.999 Q143.33 649.078 137.01 649.078 Q134.834 649.078 132.566 648.707 Q130.32 648.337 127.913 647.596 L127.913 642.897 Q129.996 644.031 132.219 644.587 Q134.441 645.142 136.918 645.142 Q140.922 645.142 143.26 643.036 Q145.598 640.93 145.598 637.318 Q145.598 633.707 143.26 631.601 Q140.922 629.494 136.918 629.494 Q135.043 629.494 133.168 629.911 Q131.316 630.328 129.371 631.207 L129.371 613.846 Z" fill="#000000" fill-rule="nonzero" fill-opacity="1" /><path clip-path="url(#clip680)" d="M62.9365 345.35 Q59.3254 345.35 57.4967 348.915 Q55.6912 352.456 55.6912 359.586 Q55.6912 366.692 57.4967 370.257 Q59.3254 373.799 62.9365 373.799 Q66.5707 373.799 68.3763 370.257 Q70.205 366.692 70.205 359.586 Q70.205 352.456 68.3763 348.915 Q66.5707 345.35 62.9365 345.35 M62.9365 341.646 Q68.7467 341.646 71.8022 346.253 Q74.8809 350.836 74.8809 359.586 Q74.8809 368.313 71.8022 372.919 Q68.7467 377.503 62.9365 377.503 Q57.1264 377.503 54.0477 372.919 Q50.9921 368.313 50.9921 359.586 Q50.9921 350.836 54.0477 346.253 Q57.1264 341.646 62.9365 341.646 Z" fill="#000000" fill-rule="nonzero" fill-opacity="1" /><path clip-path="url(#clip680)" d="M83.0984 370.952 L87.9827 370.952 L87.9827 376.831 L83.0984 376.831 L83.0984 370.952 Z" fill="#000000" fill-rule="nonzero" fill-opacity="1" /><path clip-path="url(#clip680)" d="M102.196 372.896 L118.515 372.896 L118.515 376.831 L96.5706 376.831 L96.5706 372.896 Q99.2326 370.142 103.816 365.512 Q108.422 360.859 109.603 359.517 Q111.848 356.993 112.728 355.257 Q113.631 353.498 113.631 351.808 Q113.631 349.054 111.686 347.318 Q109.765 345.581 106.663 345.581 Q104.464 345.581 102.01 346.345 Q99.5798 347.109 96.8021 348.66 L96.8021 343.938 Q99.6261 342.804 102.08 342.225 Q104.534 341.646 106.571 341.646 Q111.941 341.646 115.135 344.331 Q118.33 347.017 118.33 351.507 Q118.33 353.637 117.52 355.558 Q116.733 357.456 114.626 360.049 Q114.047 360.72 110.946 363.938 Q107.844 367.132 102.196 372.896 Z" fill="#000000" fill-rule="nonzero" fill-opacity="1" /><path clip-path="url(#clip680)" d="M138.33 345.35 Q134.719 345.35 132.89 348.915 Q131.084 352.456 131.084 359.586 Q131.084 366.692 132.89 370.257 Q134.719 373.799 138.33 373.799 Q141.964 373.799 143.769 370.257 Q145.598 366.692 145.598 359.586 Q145.598 352.456 143.769 348.915 Q141.964 345.35 138.33 345.35 M138.33 341.646 Q144.14 341.646 147.195 346.253 Q150.274 350.836 150.274 359.586 Q150.274 368.313 147.195 372.919 Q144.14 377.503 138.33 377.503 Q132.519 377.503 129.441 372.919 Q126.385 368.313 126.385 359.586 Q126.385 350.836 129.441 346.253 Q132.519 341.646 138.33 341.646 Z" fill="#000000" fill-rule="nonzero" fill-opacity="1" /><path clip-path="url(#clip680)" d="M63.9319 73.775 Q60.3208 73.775 58.4921 77.3398 Q56.6865 80.8814 56.6865 88.011 Q56.6865 95.1174 58.4921 98.6822 Q60.3208 102.224 63.9319 102.224 Q67.5661 102.224 69.3717 98.6822 Q71.2004 95.1174 71.2004 88.011 Q71.2004 80.8814 69.3717 77.3398 Q67.5661 73.775 63.9319 73.775 M63.9319 70.0713 Q69.742 70.0713 72.7976 74.6777 Q75.8763 79.261 75.8763 88.011 Q75.8763 96.7378 72.7976 101.344 Q69.742 105.928 63.9319 105.928 Q58.1217 105.928 55.043 101.344 Q51.9875 96.7378 51.9875 88.011 Q51.9875 79.261 55.043 74.6777 Q58.1217 70.0713 63.9319 70.0713 Z" fill="#000000" fill-rule="nonzero" fill-opacity="1" /><path clip-path="url(#clip680)" d="M84.0938 99.3767 L88.978 99.3767 L88.978 105.256 L84.0938 105.256 L84.0938 99.3767 Z" fill="#000000" fill-rule="nonzero" fill-opacity="1" /><path clip-path="url(#clip680)" d="M103.191 101.321 L119.51 101.321 L119.51 105.256 L97.566 105.256 L97.566 101.321 Q100.228 98.5665 104.811 93.9369 Q109.418 89.2841 110.598 87.9416 Q112.844 85.4184 113.723 83.6823 Q114.626 81.9231 114.626 80.2333 Q114.626 77.4786 112.682 75.7425 Q110.76 74.0064 107.658 74.0064 Q105.459 74.0064 103.006 74.7703 Q100.575 75.5342 97.7974 77.0851 L97.7974 72.3629 Q100.621 71.2287 103.075 70.65 Q105.529 70.0713 107.566 70.0713 Q112.936 70.0713 116.131 72.7565 Q119.325 75.4416 119.325 79.9323 Q119.325 82.062 118.515 83.9832 Q117.728 85.8814 115.621 88.474 Q115.043 89.1453 111.941 92.3628 Q108.839 95.5573 103.191 101.321 Z" fill="#000000" fill-rule="nonzero" fill-opacity="1" /><path clip-path="url(#clip680)" d="M129.371 70.6963 L147.728 70.6963 L147.728 74.6314 L133.654 74.6314 L133.654 83.1036 Q134.672 82.7564 135.691 82.5944 Q136.709 82.4092 137.728 82.4092 Q143.515 82.4092 146.894 85.5805 Q150.274 88.7517 150.274 94.1684 Q150.274 99.747 146.802 102.849 Q143.33 105.928 137.01 105.928 Q134.834 105.928 132.566 105.557 Q130.32 105.187 127.913 104.446 L127.913 99.747 Q129.996 100.881 132.219 101.437 Q134.441 101.992 136.918 101.992 Q140.922 101.992 143.26 99.8859 Q145.598 97.7795 145.598 94.1684 Q145.598 90.5573 143.26 88.4508 Q140.922 86.3443 136.918 86.3443 Q135.043 86.3443 133.168 86.761 Q131.316 87.1777 129.371 88.0573 L129.371 70.6963 Z" fill="#000000" fill-rule="nonzero" fill-opacity="1" /><polyline clip-path="url(#clip681)" style="stroke:#009af9; stroke-linecap:round; stroke-linejoin:round; stroke-width:4; stroke-opacity:1; fill:none" points="247.59,87.9763 252.865,119.874 258.14,151.022 263.415,181.439 268.69,211.141 276.413,253.378 284.137,294.17 291.861,333.566 299.585,371.615 307.309,408.362 315.033,443.852 322.757,478.128 330.48,511.232 338.204,543.203 345.928,574.08 353.652,603.902 361.376,632.703 376.823,687.383 392.271,738.386 399.457,760.93 406.644,782.755 413.83,803.885 421.016,824.341 435.389,863.319 449.761,899.853 459.393,923.045 469.026,945.253 478.658,966.518 488.29,986.879 507.555,1025.04 526.819,1060.03 542.738,1086.74 558.656,1111.6 574.575,1134.74 590.493,1156.27 605.296,1174.96 620.098,1192.44 634.901,1208.79 649.703,1224.09 668.286,1241.9 686.868,1258.29 705.45,1273.35 724.033,1287.21 757.37,1309.34 790.706,1328.38 828.865,1346.94 867.024,1362.57 895.547,1372.61 924.071,1381.45 960.553,1391.21 997.035,1399.49 1030.33,1405.95 1063.63,1411.51 1139.42,1421.45 1199.51,1427.24 1274.15,1432.55 1331.32,1435.57 1411.91,1438.7 1472.14,1440.4 1540.63,1441.85 1608.47,1442.9 1683.09,1443.75 1740.09,1444.22 1812.03,1444.67 1878.56,1444.98 1947.17,1445.21 2016.72,1445.38 2089.34,1445.51 2146.54,1445.59 2276.82,1445.71 2291.44,1445.72 "/>
<path clip-path="url(#clip680)" d="M2011.46 198.898 L2280.54 198.898 L2280.54 95.2176 L2011.46 95.2176  Z" fill="#ffffff" fill-rule="evenodd" fill-opacity="1"/>
<polyline clip-path="url(#clip680)" style="stroke:#000000; stroke-linecap:round; stroke-linejoin:round; stroke-width:4; stroke-opacity:1; fill:none" points="2011.46,198.898 2280.54,198.898 2280.54,95.2176 2011.46,95.2176 2011.46,198.898 "/>
<polyline clip-path="url(#clip680)" style="stroke:#009af9; stroke-linecap:round; stroke-linejoin:round; stroke-width:4; stroke-opacity:1; fill:none" points="2035.53,147.058 2179.97,147.058 "/>
<path clip-path="url(#clip680)" d="M2217.88 166.745 Q2216.07 171.375 2214.36 172.787 Q2212.65 174.199 2209.78 174.199 L2206.38 174.199 L2206.38 170.634 L2208.88 170.634 Q2210.63 170.634 2211.61 169.8 Q2212.58 168.967 2213.76 165.865 L2214.52 163.921 L2204.04 138.412 L2208.55 138.412 L2216.65 158.689 L2224.76 138.412 L2229.27 138.412 L2217.88 166.745 Z" fill="#000000" fill-rule="nonzero" fill-opacity="1" /><path clip-path="url(#clip680)" d="M2236.56 160.402 L2244.2 160.402 L2244.2 134.037 L2235.89 135.703 L2235.89 131.444 L2244.15 129.778 L2248.83 129.778 L2248.83 160.402 L2256.47 160.402 L2256.47 164.338 L2236.56 164.338 L2236.56 160.402 Z" fill="#000000" fill-rule="nonzero" fill-opacity="1" /></svg>
